<?xml version="1.0" standalone="no"?>
<!DOCTYPE svg PUBLIC "-//W3C//DTD SVG 20010904//EN"
 "http://www.w3.org/TR/2001/REC-SVG-20010904/DTD/svg10.dtd">
<svg version="1.0" xmlns="http://www.w3.org/2000/svg"
 width="512.000000pt" height="512.000000pt" viewBox="0 0 512.000000 512.000000"
 preserveAspectRatio="xMidYMid meet">
<g transform="translate(0.000000,512.000000) scale(0.100000,-0.100000)"
fill="#05A" stroke="none">
<path d="M360 5101 c-91 -29 -142 -61 -211 -130 -70 -70 -106 -130 -133 -220
-14 -50 -16 -255 -16 -2191 0 -2343 -4 -2173 58 -2295 32 -64 143 -175 207
-207 122 -62 -48 -58 2295 -58 2343 0 2173 -4 2295 58 64 32 175 143 207 207
62 122 58 -48 58 2295 0 2343 4 2173 -58 2295 -32 64 -143 175 -207 207 -122
62 49 58 -2299 57 -2024 0 -2144 -1 -2196 -18z m1155 -578 c-9 -46 -21 -323
-17 -375 l3 -38 162 0 c157 0 373 14 423 26 l24 6 0 -167 0 -167 -27 6 c-16 4
-153 10 -305 13 l-278 6 0 -213 0 -212 265 4 265 4 -7 -51 c-10 -63 -10 -1368
0 -1415 l7 -35 -265 3 -265 4 0 -193 0 -192 233 7 c127 3 247 9 265 12 l32 6
0 -167 c0 -155 -1 -167 -17 -160 -10 5 -130 10 -267 13 l-248 4 5 -318 c3
-176 9 -334 12 -352 l7 -32 -177 0 -177 0 6 47 c3 27 9 185 12 351 l6 304
-303 -5 c-167 -3 -319 -9 -337 -12 l-32 -7 0 167 0 167 37 -6 c21 -4 172 -9
336 -12 l297 -6 0 192 0 193 -265 -5 -265 -5 8 86 c9 112 9 1220 0 1332 l-8
86 265 -5 265 -5 0 213 0 212 -297 -5 c-164 -3 -308 -8 -320 -12 l-23 -7 0
167 c0 156 1 166 18 161 37 -12 272 -26 446 -26 l179 0 -7 188 c-3 103 -9 204
-12 225 l-6 37 177 0 177 0 -7 -37z m1940 -90 c48 -65 138 -168 229 -258 243
-243 536 -448 839 -588 l78 -36 -41 -59 c-40 -59 -120 -220 -120 -241 0 -14
-16 -14 -42 0 -11 6 -23 8 -26 4 -4 -4 -9 -543 -12 -1198 -5 -1104 -7 -1196
-23 -1245 -31 -90 -87 -140 -192 -169 -62 -17 -353 -27 -490 -16 l-100 8 -8
70 c-7 66 -36 196 -53 239 -6 16 -4 18 10 13 42 -16 210 -38 336 -44 168 -7
203 3 220 65 7 26 9 179 8 441 l-3 401 -55 -72 c-94 -126 -292 -315 -463 -442
-87 -65 -159 -117 -161 -115 -2 2 -20 36 -40 76 -19 39 -56 96 -80 126 l-44
54 40 23 c91 51 279 181 363 252 162 135 301 292 408 461 l37 58 -2 250 -3
251 -62 -79 c-77 -98 -182 -205 -298 -306 -93 -82 -306 -247 -318 -247 -4 0
-21 28 -38 63 -17 34 -54 91 -81 125 -27 35 -48 65 -46 66 2 1 39 24 83 51
261 158 482 353 636 563 l32 44 -309 -4 c-170 -2 -317 -8 -326 -12 -17 -8 -18
3 -18 152 l0 159 48 -10 c54 -12 851 -15 896 -3 27 7 23 11 -90 79 -361 219
-689 513 -935 837 l-25 34 -62 -90 c-200 -291 -485 -582 -778 -795 l-87 -64
39 -8 c46 -10 816 -2 858 8 l29 8 -8 -39 c-3 -21 -9 -570 -11 -1219 -5 -1285
-4 -1247 -61 -1324 -34 -44 -109 -77 -206 -90 -86 -12 -349 -15 -445 -5 l-60
7 -7 61 c-4 33 -18 104 -31 156 -13 52 -24 97 -24 101 0 3 28 0 63 -7 98 -21
304 -37 375 -29 109 12 102 -18 102 438 l-1 392 -25 -30 c-218 -253 -318 -345
-543 -503 -73 -51 -95 -62 -102 -51 -5 8 -26 43 -46 78 -21 35 -57 86 -81 112
l-43 48 23 14 c13 8 52 31 88 52 263 154 429 302 639 565 l91 115 0 283 0 283
-77 -93 c-146 -176 -332 -347 -527 -483 -54 -37 -98 -66 -100 -64 -1 2 -18 38
-39 80 -20 41 -54 96 -77 121 -22 25 -40 50 -40 55 1 4 51 36 113 71 62 34
153 93 202 129 140 104 400 372 460 472 7 11 -35 13 -271 8 -153 -4 -294 -9
-311 -13 l-33 -6 0 121 c0 66 -3 121 -6 121 -3 0 -14 -4 -24 -10 -16 -8 -20
-5 -30 28 -7 20 -39 88 -71 151 -33 63 -58 115 -57 115 307 188 404 262 588
446 194 193 304 333 414 523 l27 47 168 0 168 0 78 -107z"/>
<path d="M970 2975 l0 -175 375 0 375 0 0 175 0 175 -375 0 -375 0 0 -175z"/>
<path d="M970 2360 l0 -180 375 0 375 0 0 180 0 180 -375 0 -375 0 0 -180z"/>
</g>
</svg>
